<?xml version="1.0" standalone="no"?>
<!DOCTYPE svg PUBLIC "-//W3C//DTD SVG 20010904//EN"
 "http://www.w3.org/TR/2001/REC-SVG-20010904/DTD/svg10.dtd">
<svg version="1.0" xmlns="http://www.w3.org/2000/svg"
 width="256.000000pt" height="256.000000pt" viewBox="0 0 256.000000 256.000000"
 preserveAspectRatio="xMidYMid meet">
<metadata>
Created by potrace 1.11, written by Peter Selinger 2001-2013
</metadata>
<g transform="translate(0.000000,256.000000) scale(0.100000,-0.100000)"
fill="#000000" stroke="none">
<path d="M1080 2325 c-506 -101 -862 -533 -861 -1045 0 -183 32 -323 107 -473
225 -449 730 -684 1209 -562 190 48 336 128 475 261 104 100 169 186 225 301
142 291 148 627 15 911 l-39 82 -121 -85 c-66 -47 -124 -85 -128 -85 -9 0
-117 156 -117 169 0 5 79 64 175 132 96 67 190 133 208 146 l33 25 -37 41
c-40 45 -159 152 -185 167 -12 7 -39 -8 -108 -56 l-92 -66 -67 35 c-82 43
-200 84 -300 103 -91 17 -303 17 -392 -1z m325 -579 c212 -56 355 -245 355
-467 0 -197 -124 -379 -307 -449 -72 -28 -203 -37 -282 -20 -137 30 -260 129
-327 264 l-39 80 0 125 c0 125 0 127 37 204 61 127 169 221 302 263 54 17 199
17 261 0z"/>
<path d="M1245 1430 c-103 -23 -152 -143 -96 -234 28 -45 99 -81 147 -73 75
12 144 88 144 157 0 13 -9 43 -21 66 -31 66 -104 100 -174 84z"/>
</g>
</svg>
